<svg width="900" height="600" viewBox="0 0 900 600" fill="none" xmlns="http://www.w3.org/2000/svg">
<path d="M739.268 138.913H207.031C191.567 138.913 179.031 151.449 179.031 166.913V480.6C179.031 496.064 191.567 508.6 207.031 508.6H739.268C754.732 508.6 767.268 496.064 767.268 480.6V166.913C767.268 151.449 754.732 138.913 739.268 138.913Z" fill="white" stroke="#E5E7EB" stroke-width="4"/>
<path d="M683.205 166.091H642.44C636.04 166.091 630.851 171.279 630.851 177.68C630.851 184.08 636.04 189.268 642.44 189.268H683.205C689.606 189.268 694.794 184.08 694.794 177.68C694.794 171.279 689.606 166.091 683.205 166.091Z" fill="white" stroke="#E5E7EB" stroke-width="4"/>
<path d="M597.144 166.091H556.379C549.979 166.091 544.79 171.279 544.79 177.68C544.79 184.08 549.979 189.268 556.379 189.268H597.144C603.544 189.268 608.733 184.08 608.733 177.68C608.733 171.279 603.544 166.091 597.144 166.091Z" fill="white" stroke="#E5E7EB" stroke-width="4"/>
<path d="M522.672 177.68C522.672 171.279 517.484 166.091 511.084 166.091C504.683 166.091 499.495 171.279 499.495 177.68C499.495 184.08 504.683 189.268 511.084 189.268C517.484 189.268 522.672 184.08 522.672 177.68Z" fill="white" stroke="#E5E7EB" stroke-width="4"/>
<path d="M252.553 381.315H331.611V410.268H364.907V381.315H385.335V353.407H364.907V245.557H321.316L252.553 353.89V381.315ZM332.254 353.407H287.618V352.12L330.967 283.518H332.254V353.407ZM473.118 413.887C514.537 413.887 539.549 382.36 539.63 328.073C539.71 274.189 514.376 243.305 473.118 243.305C431.78 243.305 406.687 274.108 406.607 328.073C406.446 382.199 431.619 413.806 473.118 413.887ZM473.118 385.014C454.219 385.014 441.994 366.034 442.074 328.073C442.155 290.676 454.299 271.856 473.118 271.856C491.857 271.856 504.082 290.676 504.082 328.073C504.162 366.034 491.938 385.014 473.118 385.014ZM561.968 381.315H641.026V410.268H674.322V381.315H694.75V353.407H674.322V245.557H630.731L561.968 353.89V381.315ZM641.669 353.407H597.033V352.12L640.382 283.518H641.669V353.407Z" fill="#E5E7EB"/>
<path d="M235.047 175.415C235.047 170.265 230.872 166.091 225.723 166.091C220.573 166.091 216.399 170.265 216.399 175.415C216.399 180.564 220.573 184.739 225.723 184.739C230.872 184.739 235.047 180.564 235.047 175.415Z" fill="white" stroke="#E5E7EB" stroke-width="4"/>
<path d="M186.698 387.712C193.233 387.712 198.531 393.01 198.531 399.545C198.531 406.08 193.233 411.378 186.698 411.378C180.163 411.378 174.865 406.08 174.865 399.545C174.865 393.01 180.163 387.712 186.698 387.712Z" fill="#0E9F6E"/>
<path d="M776.404 259.957C768.479 264.532 758.346 261.817 753.77 253.892C749.195 245.967 751.91 235.834 759.835 231.258C767.76 226.683 777.893 229.398 782.469 237.323C787.044 245.248 784.329 255.381 776.404 259.957Z" fill="#0E9F6E"/>
<path d="M466.813 189.921C459.993 189.921 454.464 184.392 454.464 177.572C454.464 170.752 459.993 165.223 466.813 165.223C473.633 165.223 479.162 170.752 479.162 177.572C479.162 184.392 473.633 189.921 466.813 189.921Z" fill="#E5E7EB"/>
<path d="M319.16 148.268C328.237 148.268 335.595 140.91 335.595 131.833C335.595 122.756 328.237 115.398 319.16 115.398C310.083 115.398 302.725 122.756 302.725 131.833C302.725 140.91 310.083 148.268 319.16 148.268Z" fill="#0E9F6E"/>
<path d="M554.114 430.2C546.609 430.2 540.525 436.284 540.525 443.789C540.525 451.294 546.609 457.378 554.114 457.378C561.619 457.378 567.703 451.294 567.703 443.789C567.703 436.284 561.619 430.2 554.114 430.2Z" fill="#0E9F6E"/>
<path d="M302.76 482.358C295.862 482.358 290.27 476.766 290.27 469.868C290.27 462.97 295.862 457.378 302.76 457.378C309.658 457.378 315.25 462.97 315.25 469.868C315.25 476.766 309.658 482.358 302.76 482.358Z" fill="#E5E7EB"/>
<path d="M427.767 423.557C432.244 426.141 433.778 431.866 431.193 436.343C428.609 440.82 422.884 442.353 418.407 439.769C413.93 437.184 412.397 431.46 414.981 426.983C417.566 422.506 423.29 420.972 427.767 423.557Z" fill="#E5E7EB"/>
<path d="M736.457 163.478L719.433 180.502C718.813 181.122 718.813 182.128 719.433 182.748C720.053 183.367 721.058 183.367 721.678 182.747L738.702 165.723C739.322 165.103 739.323 164.097 738.703 163.477C738.083 162.857 737.077 162.858 736.457 163.478Z" fill="#E5E7EB"/>
<path d="M734.791 175.668L729.882 180.577C729.262 181.197 729.262 182.203 729.882 182.823C730.502 183.443 731.507 183.442 732.127 182.822L737.036 177.913C737.657 177.293 737.657 176.287 737.037 175.667C736.417 175.047 735.412 175.048 734.791 175.668Z" fill="#E5E7EB"/>
<path d="M211.386 464.044L196.152 479.278C195.597 479.832 195.597 480.732 196.152 481.286L196.153 481.287C196.707 481.841 197.606 481.841 198.161 481.287L213.395 466.053C213.949 465.498 213.949 464.599 213.395 464.045L213.394 464.044C212.84 463.489 211.94 463.489 211.386 464.044Z" fill="#E5E7EB"/>
<path d="M209.895 474.95L205.501 479.344C204.947 479.898 204.947 480.798 205.501 481.352L205.502 481.353C206.056 481.907 206.956 481.907 207.51 481.353L211.904 476.959C212.459 476.404 212.459 475.505 211.904 474.951L211.903 474.95C211.349 474.395 210.45 474.395 209.895 474.95Z" fill="#E5E7EB"/>
<path d="M137.559 167.787L167.008 138.338C168.081 137.265 168.081 135.527 167.008 134.454C165.936 133.382 164.197 133.382 163.125 134.454L133.676 163.903C132.604 164.976 132.604 166.714 133.676 167.787C134.748 168.859 136.487 168.859 137.559 167.787Z" fill="#E5E7EB"/>
<path d="M140.443 146.702L148.936 138.209C150.009 137.136 150.009 135.398 148.936 134.325C147.864 133.253 146.125 133.253 145.053 134.325L136.56 142.818C135.487 143.891 135.487 145.629 136.56 146.702C137.632 147.774 139.371 147.774 140.443 146.702Z" fill="#E5E7EB"/>
<path d="M722.411 484.565L743.142 463.834C743.897 463.079 743.897 461.855 743.142 461.1C742.387 460.345 741.163 460.345 740.408 461.1L719.677 481.832C718.922 482.587 718.922 483.811 719.677 484.565C720.432 485.32 721.656 485.32 722.411 484.565Z" fill="#E5E7EB"/>
<path d="M724.44 469.723L730.419 463.744C731.174 462.989 731.174 461.765 730.419 461.01C729.664 460.255 728.441 460.255 727.686 461.01L721.706 466.989C720.951 467.744 720.951 468.968 721.706 469.723C722.461 470.478 723.685 470.478 724.44 469.723Z" fill="#E5E7EB"/>
<path fill-rule="evenodd" clip-rule="evenodd" d="M708.429 102.773H711.733C712.532 102.773 713.175 103.423 713.175 104.215V107.519C713.175 108.318 712.525 108.961 711.733 108.961H708.429C707.637 108.961 706.987 108.311 706.987 107.519V104.215C706.987 104.026 707.024 103.838 707.096 103.663C707.168 103.488 707.274 103.328 707.408 103.194C707.542 103.06 707.702 102.954 707.877 102.882C708.052 102.81 708.24 102.773 708.429 102.773ZM719.884 102.773H723.188C723.98 102.773 724.63 103.423 724.63 104.215V107.519C724.63 108.318 723.98 108.961 723.188 108.961H719.884C719.092 108.961 718.442 108.311 718.442 107.519V104.215C718.442 103.423 719.092 102.773 719.884 102.773ZM731.347 102.773H734.651C735.444 102.773 736.094 103.423 736.094 104.215V107.519C736.094 108.318 735.444 108.961 734.651 108.961H731.347C730.555 108.961 729.905 108.311 729.905 107.519V104.215C729.905 104.026 729.942 103.838 730.014 103.663C730.086 103.488 730.192 103.328 730.326 103.194C730.46 103.06 730.62 102.954 730.795 102.882C730.97 102.81 731.157 102.773 731.347 102.773ZM742.803 102.773H746.107C746.899 102.773 747.549 103.423 747.549 104.215V107.519C747.549 108.318 746.899 108.961 746.107 108.961H742.803C742.42 108.961 742.053 108.809 741.781 108.539C741.51 108.269 741.356 107.902 741.354 107.519V104.215C741.358 103.833 741.512 103.467 741.783 103.198C742.054 102.928 742.421 102.775 742.803 102.773ZM754.259 102.773H757.563C758.362 102.773 759.012 103.423 759.012 104.215V107.519C759.012 108.318 758.362 108.961 757.563 108.961H754.259C753.467 108.961 752.817 108.311 752.817 107.519V104.215C752.817 103.423 753.467 102.773 754.259 102.773ZM720.304 115.265H723.608C724.401 115.265 725.051 115.915 725.051 116.707V120.018C725.051 120.81 724.401 121.46 723.608 121.46H720.304C719.505 121.46 718.862 120.81 718.862 120.018V116.714C718.861 116.524 718.897 116.336 718.969 116.16C719.041 115.984 719.147 115.824 719.281 115.689C719.415 115.555 719.575 115.448 719.75 115.375C719.926 115.302 720.114 115.265 720.304 115.265ZM731.76 115.265H735.064C735.856 115.265 736.506 115.915 736.506 116.707V120.018C736.506 120.81 735.856 121.46 735.064 121.46H731.76C730.968 121.46 730.318 120.81 730.318 120.018V116.714C730.317 116.524 730.353 116.336 730.425 116.16C730.497 115.984 730.603 115.824 730.737 115.689C730.871 115.555 731.031 115.448 731.206 115.375C731.382 115.302 731.57 115.265 731.76 115.265ZM743.216 115.265H746.52C747.319 115.265 747.969 115.915 747.969 116.707V120.018C747.967 120.401 747.813 120.768 747.542 121.038C747.27 121.308 746.903 121.46 746.52 121.46H743.216C742.424 121.46 741.774 120.81 741.774 120.018V116.714C741.774 115.915 742.424 115.265 743.216 115.265ZM731.347 89.353H734.651C735.444 89.353 736.094 90.003 736.094 90.795V94.1C736.094 94.898 735.444 95.542 734.651 95.542H731.347C730.555 95.542 729.905 94.892 729.905 94.1V90.795C729.905 90.6055 729.942 90.4178 730.014 90.2427C730.086 90.0676 730.192 89.9085 730.326 89.7745C730.46 89.6405 730.62 89.5343 730.795 89.462C730.97 89.3896 731.157 89.3526 731.347 89.353ZM742.803 89.353H746.107C746.899 89.353 747.549 90.003 747.549 90.795V94.1C747.549 94.898 746.899 95.542 746.107 95.542H742.803C742.42 95.5417 742.053 95.39 741.781 95.1198C741.51 94.8496 741.356 94.483 741.354 94.1V90.795C741.358 90.4126 741.512 90.0472 741.783 89.7775C742.054 89.5078 742.421 89.3553 742.803 89.353ZM111.663 492.313H114.967C115.766 492.313 116.409 492.963 116.409 493.755V497.059C116.409 497.858 115.759 498.501 114.967 498.501H111.663C110.871 498.501 110.221 497.851 110.221 497.059V493.755C110.221 493.566 110.258 493.378 110.33 493.203C110.402 493.028 110.508 492.868 110.642 492.734C110.776 492.6 110.936 492.494 111.111 492.422C111.286 492.35 111.473 492.313 111.663 492.313ZM123.118 492.313H126.422C127.215 492.313 127.865 492.963 127.865 493.755V497.059C127.865 497.858 127.215 498.501 126.422 498.501H123.118C122.326 498.501 121.676 497.851 121.676 497.059V493.755C121.676 492.963 122.326 492.313 123.118 492.313ZM134.581 492.313H137.886C138.678 492.313 139.328 492.963 139.328 493.755V497.059C139.328 497.858 138.678 498.501 137.886 498.501H134.581C133.789 498.501 133.139 497.851 133.139 497.059V493.755C133.139 493.566 133.176 493.378 133.248 493.203C133.321 493.028 133.427 492.869 133.561 492.735C133.695 492.601 133.854 492.495 134.029 492.422C134.204 492.35 134.392 492.313 134.581 492.313ZM146.037 492.313H149.341C150.133 492.313 150.783 492.963 150.783 493.755V497.059C150.783 497.858 150.133 498.501 149.341 498.501H146.037C145.654 498.501 145.287 498.349 145.015 498.079C144.744 497.809 144.59 497.442 144.588 497.059V493.755C144.592 493.373 144.746 493.007 145.017 492.738C145.288 492.468 145.655 492.315 146.037 492.313ZM157.493 492.313H160.797C161.596 492.313 162.246 492.963 162.246 493.755V497.059C162.246 497.858 161.596 498.501 160.797 498.501H157.493C156.701 498.501 156.051 497.851 156.051 497.059V493.755C156.051 492.963 156.701 492.313 157.493 492.313ZM123.539 504.805H126.843C127.635 504.805 128.285 505.455 128.285 506.247V509.558C128.285 510.35 127.635 511 126.843 511H123.539C122.74 511 122.096 510.35 122.096 509.558V506.254C122.095 506.064 122.132 505.876 122.204 505.7C122.276 505.524 122.382 505.364 122.516 505.229C122.65 505.095 122.81 504.988 122.985 504.915C123.161 504.842 123.349 504.805 123.539 504.805ZM134.994 504.805H138.298C139.09 504.805 139.74 505.455 139.74 506.247V509.558C139.74 510.35 139.09 511 138.298 511H134.994C134.202 511 133.552 510.35 133.552 509.558V506.254C133.551 506.064 133.587 505.876 133.659 505.7C133.731 505.524 133.837 505.364 133.971 505.229C134.105 505.095 134.265 504.988 134.44 504.915C134.616 504.842 134.804 504.805 134.994 504.805ZM146.45 504.805H149.754C150.553 504.805 151.203 505.455 151.203 506.247V509.558C151.201 509.941 151.047 510.308 150.776 510.578C150.504 510.848 150.137 511 149.754 511H146.45C145.658 511 145.008 510.35 145.008 509.558V506.254C145.008 505.455 145.658 504.805 146.45 504.805ZM134.582 478.893H137.886C138.678 478.893 139.328 479.543 139.328 480.336V483.64C139.328 484.439 138.678 485.082 137.886 485.082H134.582C133.789 485.082 133.139 484.432 133.139 483.64V480.336C133.139 480.146 133.176 479.959 133.248 479.783C133.32 479.608 133.427 479.449 133.561 479.315C133.695 479.181 133.854 479.074 134.029 479.002C134.205 478.93 134.392 478.893 134.582 478.893ZM146.037 478.893H149.341C150.133 478.893 150.783 479.543 150.783 480.336V483.64C150.783 484.439 150.133 485.082 149.341 485.082H146.037C145.654 485.082 145.287 484.93 145.015 484.66C144.744 484.39 144.59 484.023 144.588 483.64V480.336C144.592 479.953 144.746 479.588 145.017 479.318C145.288 479.048 145.654 478.895 146.037 478.893Z" fill="#E5E7EB"/>
<path fill-rule="evenodd" clip-rule="evenodd" d="M180.882 325.922C156.242 325.922 136.265 305.663 136.265 280.676C136.265 255.689 156.242 235.431 180.882 235.431C205.522 235.431 225.499 255.689 225.499 280.676C225.499 305.663 205.522 325.922 180.882 325.922Z" fill="#0E9F6E"/>
<path d="M198.857 261.476L180.009 281.585L168.693 269.521" stroke="white" stroke-width="7.405" stroke-linecap="round" stroke-linejoin="round"/>
<path d="M161.178 300.835L180.026 280.726L191.342 292.79" stroke="white" stroke-width="7.405" stroke-linecap="round" stroke-linejoin="round"/>
</svg>
