<svg width="24" height="24" viewBox="0 0 24 24" fill="none" xmlns="http://www.w3.org/2000/svg">
<path fill-rule="evenodd" clip-rule="evenodd" d="M5.99998 10.8V8.4C5.99998 6.8087 6.63212 5.28258 7.75734 4.15736C8.88255 3.03214 10.4087 2.4 12 2.4C13.5913 2.4 15.1174 3.03214 16.2426 4.15736C17.3678 5.28258 18 6.8087 18 8.4V10.8C18.6365 10.8 19.2469 11.0529 19.697 11.5029C20.1471 11.953 20.4 12.5635 20.4 13.2V19.2C20.4 19.8365 20.1471 20.447 19.697 20.8971C19.2469 21.3471 18.6365 21.6 18 21.6H5.99998C5.36346 21.6 4.75301 21.3471 4.30292 20.8971C3.85283 20.447 3.59998 19.8365 3.59998 19.2V13.2C3.59998 12.5635 3.85283 11.953 4.30292 11.5029C4.75301 11.0529 5.36346 10.8 5.99998 10.8ZM15.6 8.4V10.8H8.39998V8.4C8.39998 7.44522 8.77926 6.52955 9.45439 5.85442C10.1295 5.17928 11.0452 4.8 12 4.8C12.9548 4.8 13.8704 5.17928 14.5456 5.85442C15.2207 6.52955 15.6 7.44522 15.6 8.4Z" fill="#111827"/>
</svg>
