<svg width="24" height="24" viewBox="0 0 24 24" fill="none" xmlns="http://www.w3.org/2000/svg">
<path d="M12 2.39999C10.0904 2.39999 8.2591 3.15856 6.90884 4.50882C5.55858 5.85909 4.80001 7.69043 4.80001 9.59999V13.9032L3.95161 14.7516C3.78383 14.9194 3.66959 15.1332 3.62331 15.366C3.57702 15.5987 3.60079 15.8399 3.69159 16.0592C3.7824 16.2784 3.93616 16.4658 4.13346 16.5977C4.33075 16.7295 4.56271 16.7999 4.80001 16.8H19.2C19.4373 16.7999 19.6693 16.7295 19.8666 16.5977C20.0638 16.4658 20.2176 16.2784 20.3084 16.0592C20.3992 15.8399 20.423 15.5987 20.3767 15.366C20.3304 15.1332 20.2162 14.9194 20.0484 14.7516L19.2 13.9032V9.59999C19.2 7.69043 18.4414 5.85909 17.0912 4.50882C15.7409 3.15856 13.9096 2.39999 12 2.39999ZM12 21.6C11.0452 21.6 10.1296 21.2207 9.45442 20.5456C8.77929 19.8704 8.40001 18.9548 8.40001 18H15.6C15.6 18.9548 15.2207 19.8704 14.5456 20.5456C13.8705 21.2207 12.9548 21.6 12 21.6Z" fill="#111827"/>
<path d="M13 5C13 2.79086 14.7909 1 17 1C19.2091 1 21 2.79086 21 5C21 7.20914 19.2091 9 17 9C14.7909 9 13 7.20914 13 5Z" fill="#E02424" stroke="white"/>
</svg>
