<svg width="24" height="24" viewBox="0 0 24 24" fill="none" xmlns="http://www.w3.org/2000/svg">
<path d="M8.40002 3.6C8.08176 3.6 7.77654 3.72643 7.5515 3.95147C7.32645 4.17651 7.20002 4.48174 7.20002 4.8C7.20002 5.11826 7.32645 5.42348 7.5515 5.64853C7.77654 5.87357 8.08176 6 8.40002 6H15.6C15.9183 6 16.2235 5.87357 16.4486 5.64853C16.6736 5.42348 16.8 5.11826 16.8 4.8C16.8 4.48174 16.6736 4.17651 16.4486 3.95147C16.2235 3.72643 15.9183 3.6 15.6 3.6H8.40002ZM4.80002 8.4C4.80002 8.08174 4.92645 7.77651 5.1515 7.55147C5.37654 7.32643 5.68176 7.2 6.00002 7.2H18C18.3183 7.2 18.6235 7.32643 18.8486 7.55147C19.0736 7.77651 19.2 8.08174 19.2 8.4C19.2 8.71826 19.0736 9.02348 18.8486 9.24853C18.6235 9.47357 18.3183 9.6 18 9.6H6.00002C5.68176 9.6 5.37654 9.47357 5.1515 9.24853C4.92645 9.02348 4.80002 8.71826 4.80002 8.4ZM2.40002 13.2C2.40002 12.5635 2.65288 11.953 3.10297 11.5029C3.55306 11.0529 4.1635 10.8 4.80002 10.8H19.2C19.8365 10.8 20.447 11.0529 20.8971 11.5029C21.3472 11.953 21.6 12.5635 21.6 13.2V18C21.6 18.6365 21.3472 19.247 20.8971 19.6971C20.447 20.1471 19.8365 20.4 19.2 20.4H4.80002C4.1635 20.4 3.55306 20.1471 3.10297 19.6971C2.65288 19.247 2.40002 18.6365 2.40002 18V13.2Z" fill="#111827"/>
</svg>
