<svg width="24" height="24" viewBox="0 0 24 24" fill="none" xmlns="http://www.w3.org/2000/svg">
<path fill-rule="evenodd" clip-rule="evenodd" d="M21.6 12C21.6 14.5461 20.5886 16.9879 18.7882 18.7882C16.9879 20.5886 14.5461 21.6 12 21.6C9.45395 21.6 7.01215 20.5886 5.2118 18.7882C3.41145 16.9879 2.40002 14.5461 2.40002 12C2.40002 9.45392 3.41145 7.01212 5.2118 5.21177C7.01215 3.41142 9.45395 2.39999 12 2.39999C14.5461 2.39999 16.9879 3.41142 18.7882 5.21177C20.5886 7.01212 21.6 9.45392 21.6 12ZM19.2 12C19.2 13.1916 18.9108 14.3148 18.3984 15.3048L16.5696 13.4748C16.8435 12.6272 16.8759 11.7201 16.6632 10.8552L18.5376 8.98079C18.9624 9.89879 19.2 10.92 19.2 12ZM13.002 16.6956L14.898 18.5916C13.9848 18.9937 12.9978 19.2009 12 19.2C10.9574 19.2013 9.92711 18.9752 8.98082 18.5376L10.8552 16.6632C11.5592 16.8357 12.2931 16.8468 13.002 16.6956ZM7.38962 13.3404C7.15348 12.5273 7.1365 11.6662 7.34042 10.8444L7.24442 10.9404L5.40842 9.10079C5.00619 10.0144 4.79897 11.0018 4.80002 12C4.80002 13.1448 5.06762 14.2272 5.54282 15.1884L7.39082 13.3404H7.38962ZM8.69522 5.60039C9.71669 5.07242 10.8502 4.79789 12 4.79999C13.1448 4.79999 14.2272 5.06759 15.1884 5.54279L13.3404 7.39079C12.4191 7.12244 11.4386 7.13624 10.5252 7.43039L8.69522 5.60159V5.60039ZM14.4 12C14.4 12.6365 14.1472 13.247 13.6971 13.697C13.247 14.1471 12.6365 14.4 12 14.4C11.3635 14.4 10.7531 14.1471 10.303 13.697C9.85288 13.247 9.60002 12.6365 9.60002 12C9.60002 11.3635 9.85288 10.753 10.303 10.3029C10.7531 9.85285 11.3635 9.59999 12 9.59999C12.6365 9.59999 13.247 9.85285 13.6971 10.3029C14.1472 10.753 14.4 11.3635 14.4 12Z" fill="#111827"/>
</svg>
