<svg width="35" height="34" viewBox="0 0 35 34" fill="none" xmlns="http://www.w3.org/2000/svg">
<g clip-path="url(#clip0_4_615)">
<path d="M13.2283 17C13.2283 18.0439 12.8129 19.0435 12.0752 19.781L6.71443 25.1407C6.6244 25.2307 6.53279 25.316 6.43486 25.395C6.20109 25.5892 5.94679 25.7519 5.68144 25.8829C5.13178 26.1562 4.53157 26.292 3.93294 26.292C2.9268 26.292 1.91908 25.9082 1.15145 25.1392C-0.383817 23.6042 -0.383817 21.1138 1.15145 19.5773L3.72918 17L1.15145 14.4212C-0.383817 12.8862 -0.383817 10.3959 1.15145 8.85931C2.37556 7.63544 4.21093 7.38593 5.68144 8.1171C5.94995 8.24975 6.20583 8.41398 6.44276 8.6098C6.53595 8.68876 6.62756 8.77088 6.71443 8.85773L6.93082 9.07408L12.0752 14.2175C12.8144 14.9566 13.2283 15.9578 13.2283 17Z" fill="#1F2937"/>
<path d="M13.2283 17C13.2283 18.0439 12.8129 19.0435 12.0752 19.781L6.71443 25.1407C6.6244 25.2307 6.53279 25.316 6.43486 25.395C6.20109 25.5892 5.9468 25.7519 5.68144 25.8829C5.3071 25.6982 4.95803 25.4503 4.64687 25.1392C3.11161 23.6042 3.11161 21.1138 4.64687 19.5773L7.22461 17L4.64845 14.4212C3.11319 12.8862 3.11319 10.3959 4.64845 8.85931C4.95961 8.54821 5.30868 8.30186 5.68144 8.1171C5.94995 8.24975 6.20583 8.41398 6.44276 8.6098C6.53595 8.68876 6.62756 8.77088 6.71443 8.85773L6.93082 9.07408L12.0752 14.2175C12.8144 14.9566 13.2283 15.9578 13.2283 17Z" fill="#1F2937"/>
<path d="M35 17C35 26.1135 27.5843 33.5278 18.469 33.5278H10.5795C8.50718 33.5278 6.80765 31.9249 6.65759 29.8893C6.64812 29.793 6.64496 29.6951 6.64496 29.594C6.64496 27.4226 8.40609 25.6603 10.5795 25.6603H18.4706C23.247 25.6603 27.1341 21.7755 27.1341 16.9984C27.1341 12.223 23.247 8.33658 18.4706 8.33658H10.5795C8.40767 8.33658 6.64496 6.57579 6.64496 4.40283C6.64496 4.30334 6.64812 4.20385 6.65759 4.10752C6.80765 2.0751 8.5056 0.472229 10.5795 0.472229H18.4706C27.5859 0.472229 35 7.88651 35 17Z" fill="#1F2937"/>
<path d="M6.93081 9.07726C6.75233 8.94145 6.58806 8.78353 6.44275 8.61298C6.53594 8.69194 6.62755 8.77405 6.71442 8.86091L6.93081 9.07726Z" fill="#1F2937"/>
<path d="M6.71445 25.1408C6.62441 25.2308 6.5328 25.316 6.43488 25.395C6.58493 25.2166 6.75551 25.0555 6.93873 24.9165L6.71445 25.1408Z" fill="#1F2937"/>
<path d="M29.347 17C29.347 24.6165 23.1507 30.81 15.5343 30.81H8.93837C8.0507 30.81 7.24832 30.4594 6.65601 29.8894C6.64653 29.793 6.64337 29.6951 6.64337 29.5941C6.64337 27.4227 8.40451 25.6603 10.5779 25.6603H18.469C23.2454 25.6603 27.1326 21.7755 27.1326 16.9985C27.1326 12.223 23.2454 8.33662 18.469 8.33662H10.5795C8.40767 8.33662 6.64495 6.57582 6.64495 4.40286C6.64495 4.30337 6.64811 4.20389 6.65759 4.10756C7.2499 3.53747 8.05228 3.18689 8.93995 3.18689H15.5343C23.1507 3.19005 29.347 9.38362 29.347 17Z" fill="#1F2937"/>
</g>
<defs>
<clipPath id="clip0_4_615">
<rect width="35" height="33.0555" fill="white" transform="translate(0 0.472229)"/>
</clipPath>
</defs>
</svg>
