<svg width="24" height="24" viewBox="0 0 24 24" fill="none" xmlns="http://www.w3.org/2000/svg">
<path d="M10.4484 8.7516C10.2221 8.53301 9.91894 8.41206 9.60431 8.41479C9.28967 8.41753 8.9887 8.54373 8.76621 8.76622C8.54372 8.98871 8.41751 9.28968 8.41478 9.60432C8.41205 9.91896 8.533 10.2221 8.75159 10.4484L11.1516 12.8484C11.3766 13.0734 11.6818 13.1997 12 13.1997C12.3182 13.1997 12.6234 13.0734 12.8484 12.8484L15.2484 10.4484C15.467 10.2221 15.5879 9.91896 15.5852 9.60432C15.5825 9.28968 15.4563 8.98871 15.2338 8.76622C15.0113 8.54373 14.7103 8.41753 14.3957 8.41479C14.081 8.41206 13.7779 8.53301 13.5516 8.7516L13.2 9.1032V3.6C13.2 3.28174 13.0736 2.97652 12.8485 2.75147C12.6235 2.52643 12.3182 2.4 12 2.4C11.6817 2.4 11.3765 2.52643 11.1515 2.75147C10.9264 2.97652 10.8 3.28174 10.8 3.6V9.1032L10.4484 8.7516Z" fill="#111827"/>
<path d="M3.59998 6C3.59998 5.36348 3.85283 4.75303 4.30292 4.30294C4.75301 3.85285 5.36346 3.6 5.99998 3.6H7.19998C7.51824 3.6 7.82346 3.72643 8.0485 3.95147C8.27355 4.17651 8.39998 4.48174 8.39998 4.8C8.39998 5.11826 8.27355 5.42348 8.0485 5.64853C7.82346 5.87357 7.51824 6 7.19998 6H5.99998V14.4H8.39998L9.59998 16.8H14.4L15.6 14.4H18V6H16.8C16.4817 6 16.1765 5.87357 15.9514 5.64853C15.7264 5.42348 15.6 5.11826 15.6 4.8C15.6 4.48174 15.7264 4.17651 15.9514 3.95147C16.1765 3.72643 16.4817 3.6 16.8 3.6H18C18.6365 3.6 19.2469 3.85285 19.697 4.30294C20.1471 4.75303 20.4 5.36348 20.4 6V18C20.4 18.6365 20.1471 19.247 19.697 19.6971C19.2469 20.1471 18.6365 20.4 18 20.4H5.99998C5.36346 20.4 4.75301 20.1471 4.30292 19.6971C3.85283 19.247 3.59998 18.6365 3.59998 18V6Z" fill="#111827"/>
</svg>
