<svg width="20" height="21" viewBox="0 0 20 21" fill="none" xmlns="http://www.w3.org/2000/svg">
<path fill-rule="evenodd" clip-rule="evenodd" d="M8 4.5C6.93913 4.5 5.92172 4.92143 5.17157 5.67158C4.42143 6.42172 4 7.43914 4 8.5C4 9.56087 4.42143 10.5783 5.17157 11.3284C5.92172 12.0786 6.93913 12.5 8 12.5C9.06087 12.5 10.0783 12.0786 10.8284 11.3284C11.5786 10.5783 12 9.56087 12 8.5C12 7.43914 11.5786 6.42172 10.8284 5.67158C10.0783 4.92143 9.06087 4.5 8 4.5ZM2 8.5C1.99988 7.55571 2.22264 6.62472 2.65017 5.78274C3.0777 4.94077 3.69792 4.2116 4.4604 3.65453C5.22287 3.09746 6.10606 2.72822 7.03815 2.57684C7.97023 2.42546 8.92488 2.49621 9.82446 2.78335C10.724 3.07049 11.5432 3.56591 12.2152 4.2293C12.8872 4.89269 13.3931 5.70534 13.6919 6.60114C13.9906 7.49693 14.0737 8.4506 13.9343 9.38456C13.795 10.3185 13.4372 11.2064 12.89 11.976L17.707 16.793C17.8892 16.9816 17.99 17.2342 17.9877 17.4964C17.9854 17.7586 17.8802 18.0094 17.6948 18.1948C17.5094 18.3802 17.2586 18.4854 16.9964 18.4877C16.7342 18.49 16.4816 18.3892 16.293 18.207L11.477 13.391C10.5794 14.0293 9.52335 14.4082 8.42468 14.4861C7.326 14.5641 6.22707 14.3381 5.2483 13.833C4.26953 13.3278 3.44869 12.563 2.87572 11.6224C2.30276 10.6817 1.99979 9.60144 2 8.5Z" fill="#6B7280"/>
</svg>
