<svg width="28" height="29" viewBox="0 0 28 29" fill="none" xmlns="http://www.w3.org/2000/svg">
<path fill-rule="evenodd" clip-rule="evenodd" d="M4.20001 7.52778C4.20001 7.15647 4.34751 6.80038 4.61006 6.53783C4.87261 6.27528 5.22871 6.12778 5.60001 6.12778H22.4C22.7713 6.12778 23.1274 6.27528 23.39 6.53783C23.6525 6.80038 23.8 7.15647 23.8 7.52778C23.8 7.89908 23.6525 8.25518 23.39 8.51773C23.1274 8.78028 22.7713 8.92778 22.4 8.92778H5.60001C5.22871 8.92778 4.87261 8.78028 4.61006 8.51773C4.34751 8.25518 4.20001 7.89908 4.20001 7.52778ZM4.20001 14.5278C4.20001 14.1565 4.34751 13.8004 4.61006 13.5378C4.87261 13.2753 5.22871 13.1278 5.60001 13.1278H14C14.3713 13.1278 14.7274 13.2753 14.99 13.5378C15.2525 13.8004 15.4 14.1565 15.4 14.5278C15.4 14.8991 15.2525 15.2552 14.99 15.5177C14.7274 15.7803 14.3713 15.9278 14 15.9278H5.60001C5.22871 15.9278 4.87261 15.7803 4.61006 15.5177C4.34751 15.2552 4.20001 14.8991 4.20001 14.5278ZM4.20001 21.5278C4.20001 21.1565 4.34751 20.8004 4.61006 20.5378C4.87261 20.2753 5.22871 20.1278 5.60001 20.1278H22.4C22.7713 20.1278 23.1274 20.2753 23.39 20.5378C23.6525 20.8004 23.8 21.1565 23.8 21.5278C23.8 21.8991 23.6525 22.2552 23.39 22.5177C23.1274 22.7803 22.7713 22.9278 22.4 22.9278H5.60001C5.22871 22.9278 4.87261 22.7803 4.61006 22.5177C4.34751 22.2552 4.20001 21.8991 4.20001 21.5278Z" fill="#111827"/>
</svg>
