<svg width="32" height="33" viewBox="0 0 32 33" fill="none" xmlns="http://www.w3.org/2000/svg">
<rect y="0.5" width="32" height="32" rx="16" fill="white"/>
<path d="M16 6.89999C14.0905 6.89999 12.2591 7.65856 10.9089 9.00882C9.55859 10.3591 8.80002 12.1904 8.80002 14.1V18.4032L7.95163 19.2516C7.78385 19.4194 7.66961 19.6332 7.62332 19.866C7.57704 20.0987 7.60081 20.3399 7.69161 20.5592C7.78242 20.7784 7.93618 20.9658 8.13347 21.0977C8.33077 21.2295 8.56272 21.2999 8.80002 21.3H23.2C23.4373 21.2999 23.6693 21.2295 23.8666 21.0977C24.0639 20.9658 24.2176 20.7784 24.3084 20.5592C24.3992 20.3399 24.423 20.0987 24.3767 19.866C24.3304 19.6332 24.2162 19.4194 24.0484 19.2516L23.2 18.4032V14.1C23.2 12.1904 22.4415 10.3591 21.0912 9.00882C19.7409 7.65856 17.9096 6.89999 16 6.89999ZM16 26.1C15.0452 26.1 14.1296 25.7207 13.4544 25.0456C12.7793 24.3704 12.4 23.4548 12.4 22.5H19.6C19.6 23.4548 19.2207 24.3704 18.5456 25.0456C17.8705 25.7207 16.9548 26.1 16 26.1Z" fill="#111827"/>
</svg>
